{"accessors" : [{"bufferView" : 0, "byteOffset" : 0, "componentType" : 5123, "count" : 552, "type" : "SCALAR", "max" : [203], "min" : [0]}, {"bufferView" : 1, "byteOffset" : 0, "componentType" : 5126, "count" : 204, "type" : "VEC3", "max" : [61.645687103271484, 86.44216918945312, 32.64193344116211], "min" : [-61.611663818359375, -36.79020309448242, -151.3816680908203], "name" : "POSITION"}, {"bufferView" : 1, "byteOffset" : 12, "componentType" : 5126, "count" : 204, "type" : "VEC3", "max" : [1.0000044107437134, 1.0000044107437134, 1.0000044107437134], "min" : [-1.0000044107437134, -1.0000044107437134, -0.9906066656112671], "name" : "NORMAL"}, {"bufferView" : 1, "byteOffset" : 24, "componentType" : 5126, "count" : 204, "type" : "VEC2", "max" : [0.4589189291000366, 1.3230189085006714], "min" : [0.30228471755981445, 1.0379704236984253], "name" : "TEXCOORD_0"}, {"bufferView" : 0, "byteOffset" : 1104, "componentType" : 5123, "count" : 1944, "type" : "SCALAR", "max" : [819], "min" : [0]}, {"bufferView" : 2, "byteOffset" : 0, "componentType" : 5126, "count" : 820, "type" : "VEC3", "max" : [176.72293090820312, 125.18982696533203, 153.49180603027344], "min" : [-176.72293090820312, -125.89484405517578, -97.59284973144531], "name" : "POSITION"}, {"bufferView" : 2, "byteOffset" : 12, "componentType" : 5126, "count" : 820, "type" : "VEC3", "max" : [1.0000044107437134, 1.0000042915344238, 0.7071112990379333], "min" : [-1.0000044107437134, -0.7071108818054199, -0.7071117758750916], "name" : "NORMAL"}, {"bufferView" : 2, "byteOffset" : 24, "componentType" : 5126, "count" : 820, "type" : "VEC2", "max" : [0.9102048873901367, 1.7521976232528687], "min" : [0.06327319145202637, 1.1172606945037842], "name" : "TEXCOORD_0"}], "asset" : {"generator" : "Aspose.3D 24.9.1", "version" : "2.0"}, "buffers" : [{"uri" : "data:application/octet-stream;base64,", "byteLength" : 37772}], "bufferViews" : [{"buffer" : 0, "byteOffset" : 0, "byteLength" : 4992, "target" : 34963}, {"buffer" : 0, "byteOffset" : 4996, "byteLength" : 6528, "byteStride" : 32, "target" : 34962}, {"buffer" : 0, "byteOffset" : 11528, "byteLength" : 26240, "byteStride" : 32, "target" : 34962}], "images" : [{"uri" : "data:image/jpeg;base64,"}], "materials" : [{"name" : "Environment", "pbrMetallicRoughness" : {"baseColorFactor" : [1, 1, 1, 1], "baseColorTexture" : {"index" : 0, "texCoord" : 0}, "metallicFactor" : 0, "roughnessFactor" : 0.674}, "emissiveFactor" : [0, 0, 0], "alphaMode" : "OPAQUE", "doubleSided" : false}, {"name" : "Environment", "pbrMetallicRoughness" : {"baseColorFactor" : [1, 1, 1, 1], "baseColorTexture" : {"index" : 0, "texCoord" : 0}, "metallicFactor" : 0, "roughnessFactor" : 0.674}, "emissiveFactor" : [0, 0, 0], "alphaMode" : "OPAQUE", "doubleSided" : false}], "meshes" : [{"primitives" : [{"attributes" : {"POSITION" : 1, "NORMAL" : 2, "TEXCOORD_0" : 3}, "indices" : 0, "material" : 0, "mode" : 4}]}, {"primitives" : [{"attributes" : {"POSITION" : 5, "NORMAL" : 6, "TEXCOORD_0" : 7}, "indices" : 4, "material" : 1, "mode" : 4}]}], "nodes" : [{"matrix" : [1, 0, 0, 0, 0, 1, 0, 0, 0, 0, 1, 0, 0, 0, 49.937, 1], "mesh" : 0, "name" : "Cylinder"}, {"matrix" : [1, 0, 0, 0, 0, 1, 0, 0, 0, 0, 1, 0, 0, 0, 52.126, 1], "mesh" : 1, "name" : "Plane.003"}, {"children" : [0, 1], "matrix" : [0, 0, 1, 0, 1, 0, 0, 0, 0, 1, 0, 0, -644.233, 0, 0, 1], "name" : "Panel.1"}], "samplers" : [{"magFilter" : 9729, "minFilter" : 9729, "wrapS" : 10497, "wrapT" : 10497}], "scene" : 0, "scenes" : [{"nodes" : [2]}], "textures" : [{"sampler" : 0, "source" : 0, "name" : ""}]}